<?xml version="1.0" standalone="no"?>
<!DOCTYPE svg PUBLIC "-//W3C//DTD SVG 20010904//EN"
 "http://www.w3.org/TR/2001/REC-SVG-20010904/DTD/svg10.dtd">
<svg version="1.0" xmlns="http://www.w3.org/2000/svg"
 width="512.000000pt" height="512.000000pt" viewBox="0 0 512.000000 512.000000"
 preserveAspectRatio="xMidYMid meet">
<metadata>
Created by potrace 1.11, written by Peter Selinger 2001-2013
</metadata>
<g transform="translate(0.000000,512.000000) scale(0.100000,-0.100000)"
fill="#000000" stroke="none">
<path d="M2580 3654 c-36 -7 -99 -25 -140 -42 -174 -69 -540 -269 -722 -393
-32 -21 -62 -39 -67 -39 -5 0 -11 -3 -13 -7 -1 -5 -30 -26 -63 -48 -89 -59
-285 -200 -410 -295 -102 -77 -396 -311 -421 -335 -6 -5 -33 -28 -59 -50 -120
-99 -257 -231 -294 -283 -18 -26 -19 -31 -6 -42 15 -12 36 -18 73 -19 19 -1
21 -4 12 -20 -5 -11 -10 -31 -10 -45 0 -30 -8 -32 -36 -11 -10 8 -36 15 -56
15 -51 0 -88 -33 -95 -85 -4 -36 -1 -44 29 -75 l35 -35 -40 -20 c-23 -11 -50
-32 -61 -48 -24 -33 -26 -91 -4 -114 19 -18 110 -26 155 -14 23 7 33 3 59 -22
l31 -31 -31 -21 c-33 -22 -41 -43 -32 -80 4 -17 16 -25 43 -30 42 -8 274 -8
458 0 316 14 494 23 590 30 39 3 111 7 160 10 133 7 252 15 320 20 33 3 98 8
145 10 47 2 117 7 155 10 145 11 232 17 305 21 41 2 98 6 125 9 48 4 114 9
295 20 112 7 210 13 290 20 36 2 108 7 160 10 52 4 118 8 145 10 28 3 102 7
165 11 63 3 138 7 165 9 28 2 131 6 230 10 282 10 336 18 444 66 118 54 209
143 256 254 63 150 47 380 -36 496 -11 16 -48 50 -82 76 -59 46 -355 244 -489
328 -96 60 -269 166 -303 185 -16 9 -59 35 -95 57 -36 22 -91 54 -122 71 -32
18 -84 46 -115 64 -115 64 -240 129 -323 169 -47 23 -107 52 -135 66 -75 36
-261 109 -340 132 -109 32 -172 39 -245 25z"/>
</g>
</svg>
