<svg xmlns="http://www.w3.org/2000/svg" width="1900" height="840"><path d="M-86,1067L-303,1084L317,1088Z" fill="#c48f5b" stroke="#c48f5b" stroke-width="1.51"/><path d="M317,1088L-303,1084L498,1112Z" fill="#c0894f" stroke="#c0894f" stroke-width="1.51"/><path d="M498,1112L-303,1084L629,1120Z" fill="#be8549" stroke="#be8549" stroke-width="1.51"/><path d="M839,-259L1040,-254L1242,-279Z" fill="#ffc57f" stroke="#ffc57f" stroke-width="1.51"/><path d="M448,-280L839,-259L1242,-279Z" fill="#ffd188" stroke="#ffd188" stroke-width="1.51"/><path d="M1055,1107L629,1120L1578,1130Z" fill="#b55813" stroke="#b55813" stroke-width="1.51"/><path d="M448,-280L1242,-279L1621,-291Z" fill="#ffc27f" stroke="#ffc27f" stroke-width="1.51"/><path d="M1242,-279L1379,-267L1621,-291Z" fill="#f8b075" stroke="#f8b075" stroke-width="1.51"/><path d="M1621,-291L1775,-231L2014,-225Z" fill="#e09d6a" stroke="#e09d6a" stroke-width="1.51"/><path d="M1773,1047L1578,1130L2030,1064Z" fill="#983605" stroke="#983605" stroke-width="1.51"/><path d="M2030,1064L1578,1130L2141,1091Z" fill="#8d3105" stroke="#8d3105" stroke-width="1.51"/><path d="M2030,1064L2141,1091L2158,887Z" fill="#893006" stroke="#893006" stroke-width="1.51"/><path d="M2041,895L2030,1064L2158,887Z" fill="#943305" stroke="#943305" stroke-width="1.51"/><path d="M2014,-225L1994,-37L2177,-32Z" fill="#c78e58" stroke="#c78e58" stroke-width="1.51"/><path d="M1621,-291L2014,-225L2193,-224Z" fill="#d49768" stroke="#d49768" stroke-width="1.51"/><path d="M2014,-225L2177,-32L2193,-224Z" fill="#c28f5d" stroke="#c28f5d" stroke-width="1.51"/><path d="M2149,97L2011,316L2198,372Z" fill="#bd7326" stroke="#bd7326" stroke-width="1.51"/><path d="M2011,316L1993,561L2198,372Z" fill="#c16417" stroke="#c16417" stroke-width="1.51"/><path d="M2177,-32L2149,97L2198,372Z" fill="#ba7c37" stroke="#ba7c37" stroke-width="1.51"/><path d="M2193,-224L2177,-32L2198,372Z" fill="#ba8348" stroke="#ba8348" stroke-width="1.51"/><path d="M1985,659L2152,751L2211,546Z" fill="#b1490b" stroke="#b1490b" stroke-width="1.51"/><path d="M1993,561L1985,659L2211,546Z" fill="#b9510d" stroke="#b9510d" stroke-width="1.51"/><path d="M2158,887L2141,1091L2211,546Z" fill="#9b3806" stroke="#9b3806" stroke-width="1.51"/><path d="M2198,372L1993,561L2211,546Z" fill="#b85913" stroke="#b85913" stroke-width="1.51"/><path d="M2152,751L2158,887L2211,546Z" fill="#a64108" stroke="#a64108" stroke-width="1.51"/><path d="M2193,-224L2198,372L2211,546Z" fill="#b77428" stroke="#b77428" stroke-width="1.51"/><path d="M2004,101L2011,316L2149,97Z" fill="#c47e33" stroke="#c47e33" stroke-width="1.51"/><path d="M1994,-37L2004,101L2149,97Z" fill="#c68746" stroke="#c68746" stroke-width="1.51"/><path d="M2152,751L2041,895L2158,887Z" fill="#9f3905" stroke="#9f3905" stroke-width="1.51"/><path d="M1994,-37L2149,97L2177,-32Z" fill="#c1874c" stroke="#c1874c" stroke-width="1.51"/><path d="M1985,659L2041,895L2152,751Z" fill="#ab4006" stroke="#ab4006" stroke-width="1.51"/><path d="M448,-280L643,-256L839,-259Z" fill="#ffde92" stroke="#ffde92" stroke-width="1.51"/><path d="M105,1067L-86,1067L317,1088Z" fill="#c48b53" stroke="#c48b53" stroke-width="1.51"/><path d="M1258,1077L1055,1107L1578,1130Z" fill="#b14c0c" stroke="#b14c0c" stroke-width="1.51"/><path d="M1765,658L1788,929L1985,659Z" fill="#be4805" stroke="#be4805" stroke-width="1.51"/><path d="M1840,559L1993,561L2011,316Z" fill="#c86012" stroke="#c86012" stroke-width="1.51"/><path d="M1815,287L1840,559L2011,316Z" fill="#d06d19" stroke="#d06d19" stroke-width="1.51"/><path d="M2004,101L1815,287L2011,316Z" fill="#cd7c28" stroke="#cd7c28" stroke-width="1.51"/><path d="M1820,-38L1994,-37L2014,-225Z" fill="#d29359" stroke="#d29359" stroke-width="1.51"/><path d="M1788,929L1773,1047L2030,1064Z" fill="#9c3605" stroke="#9c3605" stroke-width="1.51"/><path d="M1788,929L2030,1064L2041,895Z" fill="#9c3504" stroke="#9c3504" stroke-width="1.51"/><path d="M1985,659L1788,929L2041,895Z" fill="#af3e03" stroke="#af3e03" stroke-width="1.51"/><path d="M1775,-231L1820,-38L2014,-225Z" fill="#d99860" stroke="#d99860" stroke-width="1.51"/><path d="M1994,-37L1820,-38L2004,101Z" fill="#d08d4d" stroke="#d08d4d" stroke-width="1.51"/><path d="M1763,131L1815,287L2004,101Z" fill="#d48434" stroke="#d48434" stroke-width="1.51"/><path d="M1840,559L1985,659L1993,561Z" fill="#c3540c" stroke="#c3540c" stroke-width="1.51"/><path d="M1820,-38L1763,131L2004,101Z" fill="#d68d47" stroke="#d68d47" stroke-width="1.51"/><path d="M1840,559L1765,658L1985,659Z" fill="#c7530b" stroke="#c7530b" stroke-width="1.51"/><path d="M1765,658L1624,714L1788,929Z" fill="#c64b04" stroke="#c64b04" stroke-width="1.51"/><path d="M1775,-231L1577,-71L1820,-38Z" fill="#e49d5d" stroke="#e49d5d" stroke-width="1.51"/><path d="M1594,525L1765,658L1840,559Z" fill="#d45d0c" stroke="#d45d0c" stroke-width="1.51"/><path d="M1815,287L1594,349L1840,559Z" fill="#db7118" stroke="#db7118" stroke-width="1.51"/><path d="M1594,349L1594,525L1840,559Z" fill="#de6b13" stroke="#de6b13" stroke-width="1.51"/><path d="M1624,714L1608,927L1788,929Z" fill="#c04603" stroke="#c04603" stroke-width="1.51"/><path d="M1763,131L1620,148L1815,287Z" fill="#df8832" stroke="#df8832" stroke-width="1.51"/><path d="M1577,-71L1763,131L1820,-38Z" fill="#e2964f" stroke="#e2964f" stroke-width="1.51"/><path d="M1577,-71L1620,148L1763,131Z" fill="#e69548" stroke="#e69548" stroke-width="1.51"/><path d="M1620,148L1594,349L1815,287Z" fill="#e18327" stroke="#e18327" stroke-width="1.51"/><path d="M1383,1069L1258,1077L1578,1130Z" fill="#ad4709" stroke="#ad4709" stroke-width="1.51"/><path d="M1621,-291L1577,-71L1775,-231Z" fill="#eba266" stroke="#eba266" stroke-width="1.51"/><path d="M1608,927L1773,1047L1788,929Z" fill="#ad3d04" stroke="#ad3d04" stroke-width="1.51"/><path d="M1594,525L1624,714L1765,658Z" fill="#d65b09" stroke="#d65b09" stroke-width="1.51"/><path d="M1608,927L1578,1130L1773,1047Z" fill="#a93c04" stroke="#a93c04" stroke-width="1.51"/><path d="M1451,-33L1464,114L1577,-71Z" fill="#f0a254" stroke="#f0a254" stroke-width="1.51"/><path d="M1444,341L1421,531L1594,525Z" fill="#e97517" stroke="#e97517" stroke-width="1.51"/><path d="M1444,341L1594,525L1594,349Z" fill="#e9791a" stroke="#e9791a" stroke-width="1.51"/><path d="M1435,672L1378,922L1608,927Z" fill="#cd5106" stroke="#cd5106" stroke-width="1.51"/><path d="M1383,1069L1578,1130L1608,927Z" fill="#af4306" stroke="#af4306" stroke-width="1.51"/><path d="M1378,922L1383,1069L1608,927Z" fill="#bc4907" stroke="#bc4907" stroke-width="1.51"/><path d="M1577,-71L1464,114L1620,148Z" fill="#ec9b4b" stroke="#ec9b4b" stroke-width="1.51"/><path d="M1444,341L1594,349L1620,148Z" fill="#e98728" stroke="#e98728" stroke-width="1.51"/><path d="M1464,114L1444,341L1620,148Z" fill="#ec9233" stroke="#ec9233" stroke-width="1.51"/><path d="M1379,-267L1577,-71L1621,-291Z" fill="#f3a96b" stroke="#f3a96b" stroke-width="1.51"/><path d="M1435,672L1608,927L1624,714Z" fill="#d15304" stroke="#d15304" stroke-width="1.51"/><path d="M1594,525L1435,672L1624,714Z" fill="#dc5f0b" stroke="#dc5f0b" stroke-width="1.51"/><path d="M1379,-267L1451,-33L1577,-71Z" fill="#f4a963" stroke="#f4a963" stroke-width="1.51"/><path d="M1421,531L1435,672L1594,525Z" fill="#e46911" stroke="#e46911" stroke-width="1.51"/><path d="M53,-269L299,-262L448,-280Z" fill="#fff0b5" stroke="#fff0b5" stroke-width="1.51"/><path d="M1255,671L1378,922L1435,672Z" fill="#dc5f0b" stroke="#dc5f0b" stroke-width="1.51"/><path d="M1238,492L1421,531L1444,341Z" fill="#f07d1a" stroke="#f07d1a" stroke-width="1.51"/><path d="M1234,151L1202,300L1444,341Z" fill="#f6962f" stroke="#f6962f" stroke-width="1.51"/><path d="M1379,-267L1218,-73L1451,-33Z" fill="#f9b066" stroke="#f9b066" stroke-width="1.51"/><path d="M1218,-73L1234,151L1451,-33Z" fill="#f9ab58" stroke="#f9ab58" stroke-width="1.51"/><path d="M1451,-33L1234,151L1464,114Z" fill="#f4a24c" stroke="#f4a24c" stroke-width="1.51"/><path d="M1234,151L1444,341L1464,114Z" fill="#f29936" stroke="#f29936" stroke-width="1.51"/><path d="M1255,671L1207,890L1378,922Z" fill="#d85c0a" stroke="#d85c0a" stroke-width="1.51"/><path d="M1421,531L1255,671L1435,672Z" fill="#e76a11" stroke="#e76a11" stroke-width="1.51"/><path d="M1202,300L1238,492L1444,341Z" fill="#f58923" stroke="#f58923" stroke-width="1.51"/><path d="M1242,-279L1218,-73L1379,-267Z" fill="#fdb571" stroke="#fdb571" stroke-width="1.51"/><path d="M1238,492L1255,671L1421,531Z" fill="#ed7416" stroke="#ed7416" stroke-width="1.51"/><path d="M1207,890L1258,1077L1378,922Z" fill="#c5530b" stroke="#c5530b" stroke-width="1.51"/><path d="M1378,922L1258,1077L1383,1069Z" fill="#ba4d0a" stroke="#ba4d0a" stroke-width="1.51"/><path d="M1040,-254L1043,-76L1218,-73Z" fill="#ffbe6f" stroke="#ffbe6f" stroke-width="1.51"/><path d="M1218,-73L1043,-76L1234,151Z" fill="#fdb45e" stroke="#fdb45e" stroke-width="1.51"/><path d="M1043,-76L1000,164L1234,151Z" fill="#fdb354" stroke="#fdb354" stroke-width="1.51"/><path d="M1202,300L1023,493L1238,492Z" fill="#f88c22" stroke="#f88c22" stroke-width="1.51"/><path d="M1023,493L1033,674L1238,492Z" fill="#f4821d" stroke="#f4821d" stroke-width="1.51"/><path d="M1040,-254L1218,-73L1242,-279Z" fill="#ffbc74" stroke="#ffbc74" stroke-width="1.51"/><path d="M1238,492L1033,674L1255,671Z" fill="#ef7718" stroke="#ef7718" stroke-width="1.51"/><path d="M1033,674L1207,890L1255,671Z" fill="#e46b12" stroke="#e46b12" stroke-width="1.51"/><path d="M1207,890L1055,931L1258,1077Z" fill="#c85a0f" stroke="#c85a0f" stroke-width="1.51"/><path d="M1055,931L1055,1107L1258,1077Z" fill="#bf5910" stroke="#bf5910" stroke-width="1.51"/><path d="M1000,164L1202,300L1234,151Z" fill="#faa53c" stroke="#faa53c" stroke-width="1.51"/><path d="M1002,317L1023,493L1202,300Z" fill="#fb982b" stroke="#fb982b" stroke-width="1.51"/><path d="M1033,674L1055,931L1207,890Z" fill="#dd6811" stroke="#dd6811" stroke-width="1.51"/><path d="M1000,164L1002,317L1202,300Z" fill="#fca436" stroke="#fca436" stroke-width="1.51"/><path d="M1002,317L869,364L1023,493Z" fill="#fe9c2c" stroke="#fe9c2c" stroke-width="1.51"/><path d="M822,514L840,676L1023,493Z" fill="#f88e25" stroke="#f88e25" stroke-width="1.51"/><path d="M1023,493L840,676L1033,674Z" fill="#f4831e" stroke="#f4831e" stroke-width="1.51"/><path d="M840,676L826,932L1033,674Z" fill="#e97b1b" stroke="#e97b1b" stroke-width="1.51"/><path d="M839,-259L842,-82L1040,-254Z" fill="#ffcc7d" stroke="#ffcc7d" stroke-width="1.51"/><path d="M865,125L1000,164L1043,-76Z" fill="#ffbb5a" stroke="#ffbb5a" stroke-width="1.51"/><path d="M842,-82L865,125L1043,-76Z" fill="#ffc367" stroke="#ffc367" stroke-width="1.51"/><path d="M1040,-254L842,-82L1043,-76Z" fill="#ffc673" stroke="#ffc673" stroke-width="1.51"/><path d="M865,1041L629,1120L1055,1107Z" fill="#bd681c" stroke="#bd681c" stroke-width="1.51"/><path d="M1033,674L826,932L1055,931Z" fill="#de6f16" stroke="#de6f16" stroke-width="1.51"/><path d="M865,1041L1055,1107L1055,931Z" fill="#c56214" stroke="#c56214" stroke-width="1.51"/><path d="M826,932L865,1041L1055,931Z" fill="#ce6a18" stroke="#ce6a18" stroke-width="1.51"/><path d="M1000,164L865,125L1002,317Z" fill="#ffb142" stroke="#ffb142" stroke-width="1.51"/><path d="M865,125L869,364L1002,317Z" fill="#fead3b" stroke="#fead3b" stroke-width="1.51"/><path d="M869,364L822,514L1023,493Z" fill="#fd982a" stroke="#fd982a" stroke-width="1.51"/><path d="M639,706L650,908L826,932Z" fill="#e08125" stroke="#e08125" stroke-width="1.51"/><path d="M639,706L826,932L840,676Z" fill="#e98323" stroke="#e98323" stroke-width="1.51"/><path d="M839,-259L643,-256L842,-82Z" fill="#ffd484" stroke="#ffd484" stroke-width="1.51"/><path d="M842,-82L703,-18L865,125Z" fill="#ffc96b" stroke="#ffc96b" stroke-width="1.51"/><path d="M627,148L691,351L865,125Z" fill="#ffbf4d" stroke="#ffbf4d" stroke-width="1.51"/><path d="M700,479L822,514L869,364Z" fill="#fda031" stroke="#fda031" stroke-width="1.51"/><path d="M691,351L700,479L869,364Z" fill="#ffa937" stroke="#ffa937" stroke-width="1.51"/><path d="M865,125L691,351L869,364Z" fill="#ffb340" stroke="#ffb340" stroke-width="1.51"/><path d="M826,932L629,1120L865,1041Z" fill="#c67020" stroke="#c67020" stroke-width="1.51"/><path d="M703,-18L627,148L865,125Z" fill="#ffc963" stroke="#ffc963" stroke-width="1.51"/><path d="M650,908L629,1120L826,932Z" fill="#cc7724" stroke="#cc7724" stroke-width="1.51"/><path d="M822,514L700,479L840,676Z" fill="#f8952c" stroke="#f8952c" stroke-width="1.51"/><path d="M700,479L639,706L840,676Z" fill="#f5932c" stroke="#f5932c" stroke-width="1.51"/><path d="M643,-256L703,-18L842,-82Z" fill="#ffd57d" stroke="#ffd57d" stroke-width="1.51"/><path d="M490,473L490,674L639,706Z" fill="#f79e3b" stroke="#f79e3b" stroke-width="1.51"/><path d="M627,148L516,347L691,351Z" fill="#febf4b" stroke="#febf4b" stroke-width="1.51"/><path d="M490,473L639,706L700,479Z" fill="#f9a237" stroke="#f9a237" stroke-width="1.51"/><path d="M691,351L516,347L700,479Z" fill="#feb13e" stroke="#feb13e" stroke-width="1.51"/><path d="M516,347L490,473L700,479Z" fill="#feb041" stroke="#feb041" stroke-width="1.51"/><path d="M505,117L627,148L703,-18Z" fill="#ffd06a" stroke="#ffd06a" stroke-width="1.51"/><path d="M456,-39L505,117L703,-18Z" fill="#ffd779" stroke="#ffd779" stroke-width="1.51"/><path d="M643,-256L456,-39L703,-18Z" fill="#ffdc83" stroke="#ffdc83" stroke-width="1.51"/><path d="M508,909L629,1120L650,908Z" fill="#ce7e2b" stroke="#ce7e2b" stroke-width="1.51"/><path d="M508,909L498,1112L629,1120Z" fill="#c57c30" stroke="#c57c30" stroke-width="1.51"/><path d="M639,706L508,909L650,908Z" fill="#e1882c" stroke="#e1882c" stroke-width="1.51"/><path d="M505,117L516,347L627,148Z" fill="#ffc95b" stroke="#ffc95b" stroke-width="1.51"/><path d="M490,674L508,909L639,706Z" fill="#eb9134" stroke="#eb9134" stroke-width="1.51"/><path d="M448,-280L456,-39L643,-256Z" fill="#ffe395" stroke="#ffe395" stroke-width="1.51"/><path d="M448,-280L299,-262L456,-39Z" fill="#ffe8a0" stroke="#ffe8a0" stroke-width="1.51"/><path d="M302,484L490,674L490,473Z" fill="#fbab4b" stroke="#fbab4b" stroke-width="1.51"/><path d="M490,674L301,897L508,909Z" fill="#e5913e" stroke="#e5913e" stroke-width="1.51"/><path d="M317,1088L498,1112L508,909Z" fill="#c7813a" stroke="#c7813a" stroke-width="1.51"/><path d="M301,897L317,1088L508,909Z" fill="#d28942" stroke="#d28942" stroke-width="1.51"/><path d="M302,484L490,473L516,347Z" fill="#ffb64f" stroke="#ffb64f" stroke-width="1.51"/><path d="M277,280L302,484L516,347Z" fill="#ffc05c" stroke="#ffc05c" stroke-width="1.51"/><path d="M505,117L277,280L516,347Z" fill="#ffca60" stroke="#ffca60" stroke-width="1.51"/><path d="M302,484L245,663L490,674Z" fill="#f9a84f" stroke="#f9a84f" stroke-width="1.51"/><path d="M245,663L301,897L490,674Z" fill="#ee9c4a" stroke="#ee9c4a" stroke-width="1.51"/><path d="M456,-39L243,104L505,117Z" fill="#ffdc83" stroke="#ffdc83" stroke-width="1.51"/><path d="M243,104L277,280L505,117Z" fill="#ffd676" stroke="#ffd676" stroke-width="1.51"/><path d="M299,-262L238,-57L456,-39Z" fill="#ffe99f" stroke="#ffe99f" stroke-width="1.51"/><path d="M238,-57L243,104L456,-39Z" fill="#fee393" stroke="#fee393" stroke-width="1.51"/><path d="M53,-269L238,-57L299,-262Z" fill="#fff0b1" stroke="#fff0b1" stroke-width="1.51"/><path d="M245,663L103,862L301,897Z" fill="#ea9b51" stroke="#ea9b51" stroke-width="1.51"/><path d="M103,862L105,1067L301,897Z" fill="#d79252" stroke="#d79252" stroke-width="1.51"/><path d="M118,552L245,663L302,484Z" fill="#fbb15c" stroke="#fbb15c" stroke-width="1.51"/><path d="M277,280L93,311L302,484Z" fill="#ffc769" stroke="#ffc769" stroke-width="1.51"/><path d="M301,897L105,1067L317,1088Z" fill="#cb8b4c" stroke="#cb8b4c" stroke-width="1.51"/><path d="M93,311L118,552L302,484Z" fill="#ffbf66" stroke="#ffbf66" stroke-width="1.51"/><path d="M243,104L125,99L277,280Z" fill="#ffdb81" stroke="#ffdb81" stroke-width="1.51"/><path d="M53,-269L84,-43L238,-57Z" fill="#fff0ae" stroke="#fff0ae" stroke-width="1.51"/><path d="M238,-57L125,99L243,104Z" fill="#ffe595" stroke="#ffe595" stroke-width="1.51"/><path d="M64,714L103,862L245,663Z" fill="#f0a359" stroke="#f0a359" stroke-width="1.51"/><path d="M125,99L93,311L277,280Z" fill="#ffd779" stroke="#ffd779" stroke-width="1.51"/><path d="M84,-43L125,99L238,-57Z" fill="#ffe99f" stroke="#ffe99f" stroke-width="1.51"/><path d="M118,552L64,714L245,663Z" fill="#f8ac5d" stroke="#f8ac5d" stroke-width="1.51"/><path d="M-284,-250L-93,-214L53,-269Z" fill="#fff9ca" stroke="#fff9ca" stroke-width="1.51"/><path d="M53,-269L-93,-214L84,-43Z" fill="#fff5ba" stroke="#fff5ba" stroke-width="1.51"/><path d="M-93,-214L-59,-45L84,-43Z" fill="#fff3b5" stroke="#fff3b5" stroke-width="1.51"/><path d="M-108,353L-57,497L93,311Z" fill="#ffcc77" stroke="#ffcc77" stroke-width="1.51"/><path d="M103,862L-69,911L105,1067Z" fill="#d79559" stroke="#d79559" stroke-width="1.51"/><path d="M-69,911L-86,1067L105,1067Z" fill="#ce925c" stroke="#ce925c" stroke-width="1.51"/><path d="M-58,708L64,714L118,552Z" fill="#f8ae63" stroke="#f8ae63" stroke-width="1.51"/><path d="M-57,497L-58,708L118,552Z" fill="#fdb569" stroke="#fdb569" stroke-width="1.51"/><path d="M93,311L-57,497L118,552Z" fill="#ffc26d" stroke="#ffc26d" stroke-width="1.51"/><path d="M84,-43L-59,-45L125,99Z" fill="#ffeca4" stroke="#ffeca4" stroke-width="1.51"/><path d="M-59,-45L-84,167L125,99Z" fill="#ffe89f" stroke="#ffe89f" stroke-width="1.51"/><path d="M-84,167L93,311L125,99Z" fill="#ffdd87" stroke="#ffdd87" stroke-width="1.51"/><path d="M64,714L-58,708L103,862Z" fill="#f0a45f" stroke="#f0a45f" stroke-width="1.51"/><path d="M-58,708L-69,911L103,862Z" fill="#eaa05f" stroke="#eaa05f" stroke-width="1.51"/><path d="M-84,167L-108,353L93,311Z" fill="#ffd881" stroke="#ffd881" stroke-width="1.51"/><path d="M-262,895L-86,1067L-69,911Z" fill="#d79864" stroke="#d79864" stroke-width="1.51"/><path d="M-93,-214L-243,-10L-59,-45Z" fill="#fff5ba" stroke="#fff5ba" stroke-width="1.51"/><path d="M-241,111L-84,167L-59,-45Z" fill="#ffeba5" stroke="#ffeba5" stroke-width="1.51"/><path d="M-243,-10L-241,111L-59,-45Z" fill="#ffefb1" stroke="#ffefb1" stroke-width="1.51"/><path d="M-262,895L-69,911L-58,708Z" fill="#e9a166" stroke="#e9a166" stroke-width="1.51"/><path d="M-266,665L-262,895L-58,708Z" fill="#f2a96d" stroke="#f2a96d" stroke-width="1.51"/><path d="M-108,353L-283,499L-57,497Z" fill="#ffc67a" stroke="#ffc67a" stroke-width="1.51"/><path d="M-266,665L-58,708L-57,497Z" fill="#fcb470" stroke="#fcb470" stroke-width="1.51"/><path d="M-283,499L-266,665L-57,497Z" fill="#ffbc77" stroke="#ffbc77" stroke-width="1.51"/><path d="M-324,296L-108,353L-84,167Z" fill="#ffda8a" stroke="#ffda8a" stroke-width="1.51"/><path d="M-241,111L-324,296L-84,167Z" fill="#ffe298" stroke="#ffe298" stroke-width="1.51"/><path d="M-284,-250L-243,-10L-93,-214Z" fill="#fff9c7" stroke="#fff9c7" stroke-width="1.51"/><path d="M-262,895L-303,1084L-86,1067Z" fill="#cf9568" stroke="#cf9568" stroke-width="1.51"/><path d="M-324,296L-283,499L-108,353Z" fill="#ffcf85" stroke="#ffcf85" stroke-width="1.51"/><path d="M-243,-10L-324,296L-241,111Z" fill="#ffe8a5" stroke="#ffe8a5" stroke-width="1.51"/><path d="M-284,-250L-324,296L-243,-10Z" fill="#fff1b8" stroke="#fff1b8" stroke-width="1.51"/><path d="M-266,665L-303,1084L-262,895Z" fill="#e49f6e" stroke="#e49f6e" stroke-width="1.51"/><path d="M-283,499L-303,1084L-266,665Z" fill="#f4ab73" stroke="#f4ab73" stroke-width="1.51"/><path d="M-324,296L-303,1084L-283,499Z" fill="#fdb67a" stroke="#fdb67a" stroke-width="1.51"/></svg>