<?xml version="1.0" encoding="utf-8"?>
<!-- Svg Vector Icons : http://www.onlinewebfonts.com/icon -->
<!DOCTYPE svg PUBLIC "-//W3C//DTD SVG 1.1//EN" "http://www.w3.org/Graphics/SVG/1.1/DTD/svg11.dtd">
<svg version="1.1" xmlns="http://www.w3.org/2000/svg" xmlns:xlink="http://www.w3.org/1999/xlink" x="0px" y="0px" viewBox="0 0 1000 1000" enable-background="new 0 0 1000 1000" xml:space="preserve">
<metadata> Svg Vector Icons : http://www.onlinewebfonts.com/icon </metadata>
<g><g transform="translate(0.000000,511.000000) scale(0.100000,-0.100000)"><path d="M5109.1,5005.5c-363.4-36.5-498-55.8-744.2-105.8C2553.6,4532.5,1123,3246.1,532.6,1452C50-11.3,171.1-1553.5,857.6-2720.7C1469.1-3759.1,2555.5-4495.6,3792-4712.9c894.2-155.7,2021-71.2,2870.9,213.4c228.8,75,623,242.3,690.3,290.4c30.8,19.2,76.9,76.9,105.8,125c136.5,232.7,5.8,548-255.7,621.1c-117.3,32.7-201.9,17.3-392.3-73.1c-338.4-159.6-871.1-298-1346-350c-259.6-28.8-821.1-28.8-1067.2,0C2694-3688,1569.1-2565,1349.9-847.8C1296-417.1,1307.6,173.2,1380.6,629c334.6,2088.3,1955.6,3522.8,3980.4,3522.8c807.6,0,1472.9-182.7,2047.9-561.5c242.3-159.6,603.8-521.1,765.3-763.4c280.7-425,451.9-905.7,523-1469.1c34.6-282.7,13.5-944.2-38.5-1224.9c-136.5-730.7-478.8-1296-909.5-1507.6c-401.9-198.1-686.5-109.6-776.8,240.4c-61.5,238.4-34.6,490.4,223,2063.3c178.8,1107.6,225,1424.9,207.7,1438.3c-150,94.2-649.9,236.5-1044.1,296.1c-334.6,50-921.1,46.1-1221-7.7c-275-50-519.2-119.2-730.7-209.6c-1119.1-475-1836.4-1497.9-1942.1-2772.8c-86.5-1024.9,344.2-1797.9,1126.8-2024.8c132.7-38.5,192.3-44.2,469.2-42.3c261.5,1.9,344.2,7.7,465.3,42.3c321.1,88.5,576.9,221.1,821.1,430.7c153.8,130.8,367.3,376.9,450,519.2c51.9,90.4,90.4,94.2,90.4,9.6c0-94.2,73.1-336.5,136.5-455.7c184.6-344.2,509.6-530.7,973-551.9c411.5-21.2,796.1,59.6,1169.1,244.2C9018.4-1736.2,9568.4-869,9726,300.2c44.2,326.9,44.2,951.8,0,1246c-140.4,936.5-519.2,1697.9-1142.2,2299.8c-640.3,621.1-1459.5,1001.8-2436.3,1132.6C5987.9,4999.8,5243.7,5019,5109.1,5005.5z M5778.3,1573.1c78.9-11.5,151.9-26.9,161.5-32.7c23.1-15.4-165.4-1330.7-223.1-1565.3c-51.9-200-140.4-415.3-248.1-599.9c-125-211.5-394.2-482.7-561.5-563.4c-300-146.1-642.3-101.9-832.6,107.7C3928.5-917,3868.9-722.8,3868.9-394c0,574.9,203.8,1109.5,565.3,1486.4C4818.8,1490.4,5263,1650,5778.3,1573.1z"/></g></g>
</svg>