<?xml version="1.0" encoding="utf-8"?>
<!-- Generator: Adobe Illustrator 16.0.3, SVG Export Plug-In . SVG Version: 6.00 Build 0)  -->
<!DOCTYPE svg PUBLIC "-//W3C//DTD SVG 1.1//EN" "http://www.w3.org/Graphics/SVG/1.1/DTD/svg11.dtd">
<svg version="1.1" id="Layer_1" xmlns="http://www.w3.org/2000/svg" xmlns:xlink="http://www.w3.org/1999/xlink" x="0px" y="0px"
	 width="1200px" height="1200px" viewBox="0 0 1200 1200" enable-background="new 0 0 1200 1200" xml:space="preserve">
<g>
	<g>
		<path fill="#C76500" d="M129.314,695.645c0,0-26.334,7.666-21.068,35.756c0,0-25.507-22.824-40.845,0s14.511,36.87,14.511,36.87
			s-28.092,3.511-31.602,26.334c-3.512,22.824,23.544,24.781,48.138,17.043c0,0,16.822,31.51,64.224,16.891
			c47.404-14.619,89.541-16.375,89.541-16.375l806.549-45.648l44.953-63.848l-40.379-66.073L818.2,585.68L129.314,695.645z"/>
		<path fill="#FFAA00" d="M1119.089,604.992c-66.738-49.848-395.783-263.352-500.533-263.352
			c-104.748,0-546.379,336.653-529.623,361.029c24.578,35.756,818.146-102.67,937.531-55.541
			c68.9,27.198,105.936,101.831-91.65,109.776c-161.568,6.494-726.494,59.141-768.63,58.956
			c-42.136-0.186-84.272,17.373-66.716,38.44c17.556,21.068,800.598-46.796,902.418-45.463
			C1177.452,811.138,1168.448,641.86,1119.089,604.992z"/>
		<path fill="#C76500" d="M973.915,688.936c0,0,80.373-12.294,63.486,29.727c0,0,33.439,1.041,19.24,27.158
			c-14.201,26.118-39.117,28.957-55.416,9.507c0,0-8.709,39.573-40.783,11.991c0,0-29.574,36.374-54.982,1.043
			C880.048,733.03,973.915,688.936,973.915,688.936z"/>
		<path fill="#C76500" d="M577.601,780.138c0,0,8.124,12.389-27.834,15.184c0,0,6.175,22.107-23.67,25.62
			c-29.846,3.51-31.602-20.855-31.602-20.855s-12.29,23.302-31.602,21.201c-19.312-2.102-28.093-21.201-28.093-21.201
			s-8.778,22.313-31.603,11.052c-22.824-11.265-7.021-41.111,94.809-44.623C599.836,763.003,577.601,780.138,577.601,780.138z"/>
		<path fill="#FFAA00" d="M275.034,783.797c25.023,0.28,35.114-33.605,33.357-48.269c-1.756-14.662-42.136-22.208-49.158,0
			S250.456,783.521,275.034,783.797z"/>
		<path fill="#FFAA00" d="M466.404,756.902c-36.319-25.63,66.651-34.804,83.363-21.374
			C566.478,748.957,505.03,784.159,466.404,756.902z"/>
		<path fill="#FFAA00" d="M980.624,721.56c34.395,7.244,51.703-27.072,4.502-33.812C971.802,685.847,917.226,708.208,980.624,721.56
			z"/>
		<path fill="#7DAC20" d="M648.993,722.56c11.881-13.312-1.182-34.799-30.438-34.925c-29.254-0.124-18.72,36.198-15.209,41.738
			C606.859,734.912,634.948,738.297,648.993,722.56z"/>
		<path fill="#7DAC20" d="M378.029,780.828c13.105-10.75-1.306-28.107-33.577-28.208c-32.27-0.101-20.648,29.236-16.776,33.711
			C331.55,790.806,362.535,793.54,378.029,780.828z"/>
		<path fill="#7DAC20" d="M207.546,760.66c12.662,1.38,14.4-15.481-2.516-32.856c-16.917-17.375-26.553,4.292-26.919,8.724
			C177.747,740.96,192.575,759.028,207.546,760.66z"/>
		<path fill="#7DAC20" d="M920.171,734.82c12.484,2.518,15.738-14.117,0.463-32.951c-15.279-18.832-26.832,1.874-27.596,6.257
			C892.275,712.506,905.407,731.842,920.171,734.82z"/>
		<path fill="#DE3222" d="M421.224,748.217c12.486,2.518,15.74-14.117,0.465-32.949c-15.279-18.832-26.832,1.874-27.597,6.255
			C393.328,725.904,406.463,745.238,421.224,748.217z"/>
		<path fill="#DE3222" d="M696.341,762.286c12.484,2.52,15.74-14.117,0.463-32.948c-15.277-18.832-26.832,1.874-27.596,6.254
			C668.445,739.974,681.579,759.308,696.341,762.286z"/>
		<path fill="#DE3222" d="M862.202,707.5c12.486,2.518,15.74-14.117,0.463-32.949c-15.275-18.834-26.832,1.874-27.596,6.254
			C834.306,685.186,847.441,704.521,862.202,707.5z"/>
		<path fill="#DE3222" d="M184.34,789.242c14.946-12.589-1.925-32.38-39.126-32.012c-37.199,0.368-23.366,34.012-18.834,39.112
			S166.672,804.129,184.34,789.242z"/>
		<path fill="#FFC427" d="M501.819,386.677c48.765-25.71,106.786-26.918,156.552-3.208c45.09,21.481,105.018,50.787,163.223,81.553
			c115.332,60.964,163.531,73.253,152.201,106.674c-5.197,15.33-22.295,31.949-121.256,35.13
			c-98.961,3.184-347.509,35.573-400.182,43.206c-52.67,7.63-359.6,52.06-318.5,0C133.859,650.032,322.538,481.197,501.819,386.677z
			"/>
		<path fill="#FFC427" d="M1051.046,619.221c27.336,6.65,38.746-16.885,7.717-33.541
			C996.62,552.321,972.04,599.999,1051.046,619.221z"/>
		<path fill="#C76500" d="M845.99,657.662c0,0,18.52-22.46-6.721-31.421c-25.242-8.959-35.35,15.712-35.35,15.712
			s-7.447-38.17-37.295-34.932c-29.846,3.236-36.869,25.222-36.869,25.222s-22.822-25.495-38.625-16.717
			c-15.799,8.777-21.953,28.09-21.953,28.09s-46.814-12.29-45.789,33.358C624.413,722.622,845.99,657.662,845.99,657.662z"/>
		<path fill="#FFAA00" d="M750.823,735.528c33.406,12.34,63.678-39.96,37.105-57.158
			C761.357,661.174,719.22,723.854,750.823,735.528z"/>
		<g>
			<path fill="#FFAA00" d="M584.779,394.404c-18.082-15.083-41.555,12.99-23.445,28.099
				C579.415,437.589,602.89,409.514,584.779,394.404z"/>
			<path fill="#FFAA00" d="M533.173,424.141c-18.082-15.083-41.554,12.991-23.442,28.101
				C527.81,467.325,551.282,439.251,533.173,424.141z"/>
			<path fill="#FFAA00" d="M650.982,424.141c-18.08-15.083-41.553,12.991-23.441,28.101
				C645.62,467.325,669.093,439.251,650.982,424.141z"/>
		</g>
		<g>
			<path fill="#FFAA00" d="M293.88,645.184c23.468,1.935,26.516-34.532,3.008-36.469
				C273.422,606.777,270.375,643.246,293.88,645.184z"/>
			<path fill="#FFAA00" d="M318.982,591.172c23.466,1.936,26.514-34.531,3.008-36.471
				C298.522,552.767,295.474,589.233,318.982,591.172z"/>
			<path fill="#FFAA00" d="M222.622,658.951c23.466,1.936,26.514-34.531,3.008-36.47
				C202.162,620.546,199.115,657.015,222.622,658.951z"/>
		</g>
		<g>
			<path fill="#FFAA00" d="M825.493,592.983c23.467,1.935,26.514-34.532,3.01-36.471
				C805.034,554.577,801.988,591.046,825.493,592.983z"/>
			<path fill="#FFAA00" d="M885.97,557.28c23.469,1.936,26.516-34.531,3.008-36.471C865.511,518.875,862.464,555.343,885.97,557.28z
				"/>
		</g>
	</g>
</g>
</svg>
